<svg xmlns="http://www.w3.org/2000/svg" version="1.1" xmlns:xlink="http://www.w3.org/1999/xlink" xmlns:svgjs="http://svgjs.dev/svgjs" width="1000" height="68" viewBox="0 0 1000 68"><g transform="matrix(1,0,0,1,-0.6060583788679992,0.5408388619707836)"><svg viewBox="0 0 396 27" data-background-color="#ffffff" preserveAspectRatio="xMidYMid meet" height="68" width="1000" xmlns="http://www.w3.org/2000/svg" xmlns:xlink="http://www.w3.org/1999/xlink"><g id="tight-bounds" transform="matrix(1,0,0,1,0.2399991180317329,-0.21474378131318872)"><svg viewBox="0 0 395.52 27.429487562626353" height="27.429487562626353" width="395.52"><g><svg viewBox="0 0 395.52 27.429487562626353" height="27.429487562626353" width="395.52"><g><svg viewBox="0 0 395.52 27.429487562626353" height="27.429487562626353" width="395.52"><g id="textblocktransform"><svg viewBox="0 0 395.52 27.429487562626353" height="27.429487562626353" width="395.52" id="textblock"><g><svg viewBox="0 0 395.52 27.429487562626353" height="27.429487562626353" width="395.52"><g transform="matrix(1,0,0,1,0,0)"><svg width="395.52" viewBox="5.349999904632568 -38.599998474121094 568.8099975585938 39.44999694824219" height="27.429487562626353" data-palette-color="#89939e"><path d="M17.95-37.9Q27.3-37.9 32.08-33.08 36.85-28.25 36.85-18.9L36.85-18.9Q36.85-9.5 32.1-4.75 27.35 0 17.95 0L17.95 0 5.35 0 5.35-37.9 17.95-37.9ZM31.85-19.05Q31.85-26.55 28.35-30.1 24.85-33.65 17.95-33.65L17.95-33.65 10.2-33.65 10.2-4.25 17.95-4.25Q24.9-4.25 28.38-7.8 31.85-11.35 31.85-19.05L31.85-19.05ZM70.1 0L66-11.05 50.2-11.05 46.15 0 41.15 0 55.4-38.35 60.8-38.35 75.1 0 70.1 0ZM51.85-15.4L64.35-15.4 58.1-32.3 51.85-15.4ZM81.75 0L81.75-37.9 86.6-37.9 86.6 0 81.75 0ZM102.14-4.35L117.99-4.35 117.99 0 97.29 0 97.29-37.9 102.14-37.9 102.14-4.35ZM154.14-37.9L140.19-14.65 140.19 0 135.39 0 135.39-14.65 121.49-37.9 126.49-37.9 137.79-18.75 149.14-37.9 154.14-37.9ZM196.34-37.9L196.34-33.55 184.94-33.55 184.94 0 180.04 0 180.04-33.55 168.64-33.55 168.64-37.9 196.34-37.9ZM228.63 0L224.53-11.05 208.73-11.05 204.68 0 199.68 0 213.93-38.35 219.33-38.35 233.63 0 228.63 0ZM210.38-15.4L222.88-15.4 216.63-32.3 210.38-15.4ZM251.03 0.85Q243.78 0.85 238.08-1.85L238.08-1.85 238.08-6.45Q243.83-3.4 251.03-3.4L251.03-3.4Q255.18-3.4 257.11-5.15 259.03-6.9 259.03-9.75L259.03-9.75Q259.03-12.45 257.26-13.8 255.48-15.15 252.03-16.15L252.03-16.15 248.63-17.1Q245.73-17.95 243.68-19.05 241.63-20.15 240.26-22.23 238.88-24.3 238.88-27.65L238.88-27.65Q238.88-33 242.01-35.8 245.13-38.6 250.88-38.6L250.88-38.6Q254.23-38.6 256.78-37.98 259.33-37.35 262.08-36.1L262.08-36.1 262.08-31.6Q256.98-34.35 250.88-34.35L250.88-34.35Q247.18-34.35 245.48-32.63 243.78-30.9 243.78-27.9L243.78-27.9Q243.83-25.15 245.46-23.85 247.08-22.55 250.53-21.55L250.53-21.55 253.98-20.6Q257.03-19.75 259.16-18.63 261.28-17.5 262.61-15.38 263.93-13.25 263.93-9.85L263.93-9.85Q263.88-4.9 260.46-2.02 257.03 0.85 251.03 0.85L251.03 0.85ZM293.53 0L279.88-17.1 277.28-14.35 277.28 0 272.43 0 272.43-37.9 277.28-37.9 277.28-20.95 293.38-37.9 299.53-37.9 283.18-20.6 299.78 0 293.53 0ZM347.77-37.9L353.12-37.9 353.12 0 348.27 0 348.27-30.55 336.67-14.4 334.12-14.4 322.62-30.55 322.62 0 317.77 0 317.77-37.9 323.07-37.9 335.42-20.6 347.77-37.9ZM388.77 0L384.67-11.05 368.87-11.05 364.82 0 359.82 0 374.07-38.35 379.47-38.35 393.77 0 388.77 0ZM370.52-15.4L383.02-15.4 376.77-32.3 370.52-15.4ZM424.37-37.9L429.22-37.9 429.22 0 423.92 0 405.27-29.75 405.27 0 400.42 0 400.42-37.9 405.67-37.9 424.37-8.15 424.37-37.9ZM464.87 0L460.77-11.05 444.97-11.05 440.92 0 435.92 0 450.17-38.35 455.57-38.35 469.87 0 464.87 0ZM446.62-15.4L459.12-15.4 452.87-32.3 446.62-15.4ZM486.66-23.15L505.56-23.15 505.56-2.65Q502.61-0.95 499.09-0.05 495.56 0.85 492.51 0.85L492.51 0.85Q486.51 0.85 482.34-1.63 478.16-4.1 476.06-8.55 473.96-13 473.96-18.9L473.96-18.9Q473.96-24.5 475.99-28.95 478.01-33.4 482.19-36 486.36-38.6 492.51-38.6L492.51-38.6Q495.81-38.6 498.09-37.98 500.36-37.35 503.21-36.1L503.21-36.1 503.21-31.5Q500.66-32.9 498.19-33.63 495.71-34.35 492.51-34.35L492.51-34.35Q488.26-34.35 485.21-32.4 482.16-30.45 480.56-26.98 478.96-23.5 478.96-19.05L478.96-19.05Q478.96-14.4 480.54-10.88 482.11-7.35 485.16-5.38 488.21-3.4 492.51-3.4L492.51-3.4Q494.66-3.4 496.61-3.9 498.56-4.4 500.76-5.3L500.76-5.3 500.76-18.8 486.66-18.8 486.66-23.15ZM519.96-4.2L538.31-4.2 538.31 0 515.11 0 515.11-37.9 538.06-37.9 538.06-33.7 519.96-33.7 519.96-21.15 535.56-21.15 535.56-16.95 519.96-16.95 519.96-4.2ZM568.61 0L558.86-16.05 551.51-16.05 551.51 0 546.66 0 546.66-37.9 559.91-37.9Q572.31-37.9 572.31-26.9L572.31-26.9Q572.31-22.55 570.23-19.88 568.16-17.2 564.01-16.4L564.01-16.4 574.16 0 568.61 0ZM551.51-33.65L551.51-20.3 559.91-20.3Q567.31-20.3 567.36-26.9L567.36-26.9Q567.36-30.4 565.51-32.02 563.66-33.65 559.91-33.65L559.91-33.65 551.51-33.65Z" opacity="1" transform="matrix(1,0,0,1,0,0)" fill="#89939e" class="undefined-text-0" data-fill-palette-color="primary" id="text-0"></path></svg></g></svg></g></svg></g></svg></g><g></g></svg></g><defs></defs></svg><rect width="395.52" height="27.429487562626353" fill="none" stroke="none" visibility="hidden"></rect></g></svg></g></svg>